<?xml version="1.0" encoding="UTF-8" standalone="no"?>
<svg
   xmlns:dc="http://purl.org/dc/elements/1.1/"
   xmlns:cc="http://creativecommons.org/ns#"
   xmlns:rdf="http://www.w3.org/1999/02/22-rdf-syntax-ns#"
   xmlns:svg="http://www.w3.org/2000/svg"
   xmlns="http://www.w3.org/2000/svg"
   xmlns:sodipodi="http://sodipodi.sourceforge.net/DTD/sodipodi-0.dtd"
   xmlns:inkscape="http://www.inkscape.org/namespaces/inkscape"
   width="671"
   height="72"
   viewBox="0 0 177.53541 19.050001"
   version="1.1"
   id="svg8"
   inkscape:version="1.0.2 (e86c870879, 2021-01-15)"
   sodipodi:docname="art-tracks.svg"
   inkscape:export-filename="/home/eduardo/code/projects/spiritisland/html/qed/deepsprings/art-tracks.png"
   inkscape:export-xdpi="96"
   inkscape:export-ydpi="96">
  <defs
     id="defs2">
    <inkscape:path-effect
       effect="skeletal"
       id="path-effect847"
       is_visible="true"
       lpeversion="1"
       pattern="M 0.02290848,5.0082738 H 44.870494 c 0,0 -5.927897,-4.63379602 -7.908422,-4.89918106 C 34.981555,-0.15629152 24.735489,-1.3742805 23.279323,-1.869725 21.823155,-2.36517 13.632824,-4.6078418 11.723997,-4.5566817 9.815168,-4.5055213 0.08184629,-5.8497594 0.08184629,-5.8497594 Z"
       copytype="single_stretched"
       prop_scale="1"
       scale_y_rel="false"
       spacing="0"
       normal_offset="0"
       tang_offset="0"
       prop_units="false"
       vertical_pattern="false"
       hide_knot="false"
       fuse_tolerance="0" />
  </defs>
  <sodipodi:namedview
     id="base"
     pagecolor="#ffffff"
     bordercolor="#666666"
     borderopacity="1.0"
     inkscape:pageopacity="0.0"
     inkscape:pageshadow="2"
     inkscape:zoom="1.4964933"
     inkscape:cx="277.7637"
     inkscape:cy="-33.061702"
     inkscape:document-units="mm"
     inkscape:current-layer="layer3"
     inkscape:document-rotation="0"
     showgrid="false"
     units="px"
     inkscape:snap-bbox="true"
     inkscape:bbox-nodes="false"
     inkscape:snap-page="true"
     inkscape:snap-global="false"
     inkscape:window-width="1916"
     inkscape:window-height="1041"
     inkscape:window-x="0"
     inkscape:window-y="18"
     inkscape:window-maximized="1"
     showguides="true"
     inkscape:guide-bbox="true">
    <sodipodi:guide
       position="78.299035,9.3692265"
       orientation="0,-1"
       id="guide1377" />
  </sodipodi:namedview>
  <metadata
     id="metadata5">
    <rdf:RDF>
      <cc:Work
         rdf:about="">
        <dc:format>image/svg+xml</dc:format>
        <dc:type
           rdf:resource="http://purl.org/dc/dcmitype/StillImage" />
        <dc:title></dc:title>
      </cc:Work>
    </rdf:RDF>
  </metadata>
  <g
     inkscape:label="stream"
     inkscape:groupmode="layer"
     id="layer1">
    <path
       style="fill:#00ffff;fill-rule:evenodd;stroke:#000080;stroke-width:0.1;stroke-linecap:butt;stroke-linejoin:miter;stroke-miterlimit:4;stroke-dasharray:none;stroke-opacity:1"
       d="M -0.44060029,16.205331 6.8505257,13.844618 C 11.210279,12.573143 15.379985,11.417686 19.412044,11.01126 l 4e-6,0 c 3.208835,-0.511896 7.162166,0.7728 11.758349,1.894881 4e-6,10e-7 6e-6,10e-7 9e-6,2e-6 4.385743,1.261544 9.501311,2.780237 15.424703,2.760438 6.21425,-0.218338 11.73275,-1.757408 16.686128,-2.985712 l 4e-6,-2e-6 c 5.553386,-1.282333 10.690931,-2.646503 15.486493,-2.67361 3.997355,-0.1443547 8.331772,1.041493 12.932977,2.416684 3.643854,1.177534 7.874419,2.889179 13.001379,3.604343 4.43334,0.444631 8.42596,-0.262783 11.81543,-1.25345 10e-6,-1e-6 10e-6,-2e-6 10e-6,-2e-6 3.17502,-0.824643 5.68336,-1.81742 7.71301,-1.988418 1.09051,-0.155862 2.51854,-0.05133 4.25304,0.01214 2.17666,0.108418 4.39897,0.295809 6.66973,0.498382 2.20014,0.197085 4.43257,0.417694 6.70116,0.619507 0,1e-6 0,1e-6 0,1e-6 1.46412,0.138889 3.15661,0.310571 5.0812,0.322058 1.38324,-0.03261 2.41071,-0.190115 3.08519,-0.331661 1.2469,-0.213751 2.43257,-0.456713 3.56275,-0.694612 0,0 1e-5,-10e-7 1e-5,-2e-6 2.99638,-0.628208 5.92172,-1.285886 8.79768,-1.869775 3.00817,-0.606839 5.91965,-1.164259 8.75317,-1.4858873 2.3215,-0.1260595 3.92011,-0.5010791 4.56305,-0.1314232 0,0 -0.11565,-0.2735863 -0.72846,-0.506846 -0.79328,-0.3019522 -1.70083,-0.3561288 -3.97642,-0.5918115 -2.72471,-0.2075593 -5.65423,-0.2010981 -9.17749,-0.070526 0,0 0,10e-8 0,10e-8 -3.0307,0.1117451 -6.31354,0.3373872 -9.09275,0.5482932 0,10e-8 0,10e-8 0,2e-7 -1.35104,0.1025454 -2.2712,0.1795937 -3.47642,0.2577761 0,0 0,0 0,0 -0.82709,0.05586 -1.52952,0.1134759 -2.31031,0.063807 -0.55259,-0.040828 -1.11709,-0.095096 -1.56163,-0.1349496 -0.99025,-0.088776 -1.57995,-0.1705247 -3.07697,-0.3516401 -2.06407,-0.2484768 -4.61518,-0.5779169 -6.67925,-0.8263937 0,0 0,-4e-7 0,-4e-7 -2.05848,-0.2487414 -4.46597,-0.5309273 -6.86198,-0.7267993 -1.64815,-0.1346902 -3.41811,-0.2913347 -5.1694,-0.1444417 -2.94185,0.2498202 -5.73183,1.1992194 -8.59054,1.8676569 -3.387,0.7829232 -6.54912,1.259142 -9.5325,0.7611361 C 101.56435,9.2523322 95.49149,6.6693322 93.697428,6.0159762 92.545246,5.589325 91.647197,5.2675354 91.085729,5.0568009 89.68072,4.5294624 84.409468,2.5477511 78.630585,2.2624701 72.763057,2.0240475 67.134716,3.0442304 61.240919,4.1217854 c 0,0 -3e-6,3e-7 -3e-6,3e-7 -6.391425,1.114311 -11.729437,2.0560335 -14.871215,2.007311 -0.665603,0.012125 -1.275795,-0.017802 -1.745934,-0.044802 C 42.856746,5.9828155 39.070932,4.9786264 33.716302,3.4643135 29.649601,2.1668484 24.365988,0.53884372 18.322154,0.8963528 12.725306,1.3729247 7.4040585,2.7241124 3.7075198,3.7115829 -0.65238366,4.9692333 -3.5536793,5.8017072 -3.5536793,5.8017072 -2.5173051,9.269998 -1.4796121,12.737873 -0.44060029,16.205331 Z"
       id="path833"
       inkscape:path-effect="#path-effect847"
       inkscape:original-d="m -2.112453,11.040841 c 0,0 12.590148,-4.5273392 20.942882,-5.4273535 8.352733,-0.9000143 19.110805,4.8270845 27.636407,4.6255925 8.5256,-0.201493 22.220824,-5.4831867 32.204773,-5.659989 9.983951,-0.1768022 20.168347,5.2540964 26.696611,6.061198 6.52826,0.807103 13.36941,-2.6813238 18.23588,-3.2466285 4.86646,-0.5653053 19.44628,1.415827 23.33157,1.415827 3.88529,0 24.33526,-5.9983371 30.25574,-4.3037811"
       sodipodi:nodetypes="cssssssc" />
  </g>
  <g
     inkscape:groupmode="layer"
     id="layer3"
     inkscape:label="rocks">
    <path
       style="fill:#c8b7b7;fill-rule:evenodd;stroke:#916f6f;stroke-width:0.1;stroke-linecap:butt;stroke-linejoin:miter;stroke-miterlimit:4;stroke-dasharray:none;stroke-opacity:1"
       d="m -0.93481988,15.556736 c 0.67562622,0.712233 3.43780398,0.403649 4.01342508,-0.372329 0.5756203,-0.775979 -0.195334,-4.112768 -1.382537,-4.844193 -1.18720349,-0.7314237 -3.3065143,4.504288 -2.63088808,5.216522 z"
       id="path910-3"
       sodipodi:nodetypes="zssz" />
    <path
       style="fill:#c8b7b7;fill-rule:evenodd;stroke:#916f6f;stroke-width:0.1;stroke-linecap:butt;stroke-linejoin:miter;stroke-opacity:1;stroke-miterlimit:4;stroke-dasharray:none"
       d="M 6.2711126,6.6618751 C 6.5355735,7.5031962 5.8097867,9.8904446 4.9507773,10.057203 4.0917685,10.223961 1.0938763,6.3644783 1.1385435,5.3738539 1.1831684,4.3832264 2.9221268,3.0130775 3.8393788,3.0628589 c 0.917253,0.04978 2.1672682,2.7576966 2.4317338,3.5990162 z"
       id="path912-6"
       sodipodi:nodetypes="zscsz" />
    <path
       style="fill:#c8b7b7;fill-rule:evenodd;stroke:#916f6f;stroke-width:0.1;stroke-linecap:butt;stroke-linejoin:miter;stroke-miterlimit:4;stroke-dasharray:none;stroke-opacity:1"
       d="m 10.375932,9.959325 c -0.348552,0.452897 -1.1263932,2.324036 -0.8045739,3.102583 0.3218192,0.778546 2.1090399,1.357523 3.2978499,1.033196 1.188809,-0.324326 2.495652,-3.087149 2.383749,-3.784756 C 15.141055,9.6127412 13.823544,8.7687174 12.900894,8.9251656 11.978243,9.0816137 10.724484,9.5064284 10.375932,9.959325 Z"
       id="path914-7"
       sodipodi:nodetypes="zssssz" />
    <path
       style="fill:#c8b7b7;fill-rule:evenodd;stroke:#916f6f;stroke-width:0.1;stroke-linecap:butt;stroke-linejoin:miter;stroke-miterlimit:4;stroke-dasharray:none;stroke-opacity:1"
       d="M 18.281575,2.8611736 C 17.746493,2.3803603 16.656561,2.1358627 15.539986,2.7642769 14.423412,3.3926914 13.836478,5.1347962 14.260829,5.9430171 14.685181,6.7512384 19.21266,8.1567199 19.856724,7.4516772 20.500788,6.7466339 18.816657,3.3419873 18.281575,2.8611736 Z"
       id="path981-5"
       sodipodi:nodetypes="zsssz" />
    <path
       style="fill:#c8b7b7;fill-rule:evenodd;stroke:#916f6f;stroke-width:0.1;stroke-linecap:butt;stroke-linejoin:miter;stroke-miterlimit:4;stroke-dasharray:none;stroke-opacity:1"
       d="M 29.998522,3.1831964 C 29.942112,2.6351308 28.676746,0.72812697 27.758437,0.58121467 26.840128,0.43430877 22.819948,0.21196537 22.318039,0.67403167 21.81613,1.136098 23.207966,4.5732615 23.833035,4.9783681 c 0.625067,0.4051083 4.358617,1.2118383 4.903151,0.9393193 0.544534,-0.2725167 1.320339,-2.1709687 1.262336,-2.734491 z"
       id="path908-3"
       sodipodi:nodetypes="ssssss" />
    <path
       style="fill:#c8b7b7;fill-rule:evenodd;stroke:#916f6f;stroke-width:0.1;stroke-linecap:butt;stroke-linejoin:miter;stroke-miterlimit:4;stroke-dasharray:none;stroke-opacity:1"
       d="m 32.432591,15.069219 c 1.004742,0.260728 3.767702,-0.734754 3.912518,-1.754465 0.144818,-1.01971 -4.570736,-4.3136755 -5.732558,-4.2021158 -1.161827,0.1115106 -2.668781,2.2373428 -2.555583,3.3126098 0.113196,1.075269 3.370882,2.383243 4.375623,2.643971 z"
       id="path912-5"
       sodipodi:nodetypes="zscsz" />
    <path
       style="fill:#c8b7b7;fill-rule:evenodd;stroke:#916f6f;stroke-width:0.14073px;stroke-linecap:butt;stroke-linejoin:miter;stroke-opacity:1"
       d="M 43.98633,5.7023142 C 43.462924,4.7006169 40.307283,4.171038 39.425192,4.8486452 c -0.882091,0.6776075 -1.080974,4.6153044 0.0028,5.7996108 1.083775,1.184307 5.081743,-3.9442446 4.558338,-4.9459418 z"
       id="path910-6"
       sodipodi:nodetypes="zssz" />
    <path
       style="fill:#c8b7b7;fill-rule:evenodd;stroke:#916f6f;stroke-width:0.1;stroke-linecap:butt;stroke-linejoin:miter;stroke-miterlimit:4;stroke-dasharray:none;stroke-opacity:1"
       d="m 44.748832,14.687627 c 0.05949,0.711145 0.680417,1.602921 1.914178,1.850613 1.233762,0.247691 2.842327,-0.691731 3.085451,-1.579154 0.243123,-0.887423 -2.071026,-4.887155 -3.015633,-4.770491 -0.944607,0.116665 -2.043489,3.787887 -1.983996,4.499032 z"
       id="path981-2"
       sodipodi:nodetypes="zsssz" />
    <path
       style="fill:#c8b7b7;fill-rule:evenodd;stroke:#916f6f;stroke-width:0.1;stroke-linecap:butt;stroke-linejoin:miter;stroke-miterlimit:4;stroke-dasharray:none;stroke-opacity:1"
       d="m 53.110437,6.1566209 c -0.318504,0.1543205 -1.267608,0.9753063 -1.304988,1.4956798 -0.03738,0.5203733 0.792202,1.3360826 1.540516,1.4857055 0.748313,0.149624 2.237404,-1.0187466 2.368639,-1.4361463 C 55.84584,7.2844605 55.349841,6.4520387 54.795452,6.2831459 54.241062,6.1142529 53.42894,6.0023004 53.110437,6.1566209 Z"
       id="path914-9"
       sodipodi:nodetypes="zssssz" />
    <path
       style="fill:#c8b7b7;fill-rule:evenodd;stroke:#916f6f;stroke-width:0.1;stroke-linecap:butt;stroke-linejoin:miter;stroke-miterlimit:4;stroke-dasharray:none;stroke-opacity:1"
       d="m 59.514689,6.9540114 c -0.537064,0.6360824 -0.775671,2.979292 -0.08855,3.4377346 0.687114,0.458442 4.704741,-1.8087269 5.027095,-2.6875369 0.32239,-0.8787957 -0.69205,-2.7058958 -1.508841,-2.9970398 -0.81679,-0.2911456 -2.892634,1.6107592 -3.429699,2.2468421 z"
       id="path912-1"
       sodipodi:nodetypes="zscsz" />
    <path
       style="fill:#c8b7b7;fill-rule:evenodd;stroke:#916f6f;stroke-width:0.1;stroke-linecap:butt;stroke-linejoin:miter;stroke-miterlimit:4;stroke-dasharray:none;stroke-opacity:1"
       d="m 69.10861,11.012039 c 0.68008,0.581842 2.612819,0.678382 3.211049,-0.03798 0.59823,-0.716358 1.398351,-1.9826885 1.221372,-2.8414454 -0.17698,-0.8587562 -5.256906,-0.8987187 -5.853141,-0.3395327 -0.596219,0.5592002 0.740639,2.6371141 1.42072,3.2189551 z"
       id="path1123-2"
       sodipodi:nodetypes="zsscz" />
    <path
       style="fill:#c8b7b7;fill-rule:evenodd;stroke:#916f6f;stroke-width:0.1;stroke-linecap:butt;stroke-linejoin:miter;stroke-miterlimit:4;stroke-dasharray:none;stroke-opacity:1"
       d="m 83.73867,10.442726 c 0.621907,-0.258456 1.244297,-1.073499 1.111238,-2.2535939 -0.13306,-1.1800954 -1.440935,-2.3548048 -2.308483,-2.3174755 -0.867548,0.03733 -3.794756,3.2698527 -3.417627,4.0850755 0.37713,0.8152229 3.992965,0.7444499 4.614872,0.4859939 z"
       id="path981-7"
       sodipodi:nodetypes="zsssz" />
    <path
       style="fill:#c8b7b7;fill-rule:evenodd;stroke:#916f6f;stroke-width:0.1;stroke-linecap:butt;stroke-linejoin:miter;stroke-opacity:1;stroke-miterlimit:4;stroke-dasharray:none"
       d="m 89.181443,5.0688744 c 0.377507,-0.4106548 2.047479,-1.4704111 2.84984,-1.290591 0.80236,0.1798203 1.656884,1.8022102 1.542991,2.999553 -0.113893,1.1973421 -2.55331,2.914388 -3.242862,2.9229694 -0.689553,0.00858 -1.72074,-1.1179226 -1.723967,-2.0313269 -0.0032,-0.913405 0.196491,-2.1899501 0.573998,-2.6006045 z"
       id="path914-0"
       sodipodi:nodetypes="zssssz" />
    <path
       style="fill:#c8b7b7;fill-rule:evenodd;stroke:#916f6f;stroke-width:0.1;stroke-linecap:butt;stroke-linejoin:miter;stroke-miterlimit:4;stroke-dasharray:none;stroke-opacity:1"
       d="m 99.869906,14.735462 c -0.178018,0.238514 -1.29318,0.772203 -1.759719,0.585883 -0.466536,-0.186326 -2.392348,-1.197148 -2.497059,-1.550483 -0.104711,-0.353337 1.493079,-1.561535 1.895179,-1.576194 0.4021,-0.01466 2.356924,0.645755 2.533923,0.923005 0.17699,0.27725 0.0107,1.372549 -0.172324,1.617789 z"
       id="path908-9"
       sodipodi:nodetypes="ssssss" />
    <path
       style="fill:#c8b7b7;fill-rule:evenodd;stroke:#916f6f;stroke-width:0.1;stroke-linecap:butt;stroke-linejoin:miter;stroke-miterlimit:4;stroke-dasharray:none;stroke-opacity:1"
       d="m 106.70535,8.2277891 c -0.53607,0.169243 -1.11342,0.801246 -1.08941,1.7922349 0.024,0.990991 1.02523,2.063749 1.74932,2.096398 0.72409,0.03265 3.3953,-2.4402314 3.14157,-3.1457559 -0.25373,-0.705526 -3.26541,-0.9121216 -3.80148,-0.742877 z"
       id="path981-3"
       sodipodi:nodetypes="zsssz" />
    <path
       style="fill:#c8b7b7;fill-rule:evenodd;stroke:#916f6f;stroke-width:0.1;stroke-linecap:butt;stroke-linejoin:miter;stroke-miterlimit:4;stroke-dasharray:none;stroke-opacity:1"
       d="m 114.38906,16.067282 c -0.48497,0.663972 -2.67791,1.440279 -3.27835,0.887967 -0.60044,-0.552313 0.63682,-4.937416 1.40488,-5.452034 0.76804,-0.514651 2.75838,0.03209 3.22856,0.747922 0.47019,0.71583 -0.87011,3.152172 -1.35509,3.816145 z"
       id="path912-60"
       sodipodi:nodetypes="zscsz" />
    <path
       style="fill:#c8b7b7;fill-rule:evenodd;stroke:#916f6f;stroke-width:0.1;stroke-linecap:butt;stroke-linejoin:miter;stroke-miterlimit:4;stroke-dasharray:none;stroke-opacity:1"
       d="m 125.16747,10.623421 c -0.65756,-0.30171 -2.18147,0.05129 -2.48789,0.740679 -0.30642,0.689395 -0.64798,1.851058 -0.32021,2.479468 0.32778,0.62841 4.28582,-0.465581 4.62549,-1.032347 0.33966,-0.566773 -1.15983,-1.886089 -1.81739,-2.1878 z"
       id="path1123-6"
       sodipodi:nodetypes="zsscz" />
    <path
       style="fill:#c8b7b7;fill-rule:evenodd;stroke:#916f6f;stroke-width:0.1;stroke-linecap:butt;stroke-linejoin:miter;stroke-opacity:1;stroke-miterlimit:4;stroke-dasharray:none"
       d="m 135.64584,8.4561504 c -0.24777,-0.777809 -2.42706,-1.5472105 -3.13895,-1.1748546 -0.7119,0.3723577 -1.34333,3.1492082 -0.71958,4.1266602 0.62374,0.977451 4.10629,-2.1739983 3.85853,-2.9518056 z"
       id="path910-2"
       sodipodi:nodetypes="zssz" />
    <path
       style="fill:#c8b7b7;fill-rule:evenodd;stroke:#916f6f;stroke-width:0.1;stroke-linecap:butt;stroke-linejoin:miter;stroke-miterlimit:4;stroke-dasharray:none;stroke-opacity:1"
       d="m 140.13584,12.526849 c -0.40858,0.08298 -1.73171,0.742379 -1.92652,1.325286 -0.1948,0.582909 0.51341,1.756328 1.32362,2.145863 0.81021,0.389537 2.85113,-0.508405 3.12293,-0.94636 0.2718,-0.437957 -0.0508,-1.532915 -0.63412,-1.887741 -0.58328,-0.354829 -1.47731,-0.72003 -1.88591,-0.637048 z"
       id="path914-6"
       sodipodi:nodetypes="zssssz" />
    <path
       style="fill:#c8b7b7;fill-rule:evenodd;stroke:#916f6f;stroke-width:0.1;stroke-linecap:butt;stroke-linejoin:miter;stroke-miterlimit:4;stroke-dasharray:none;stroke-opacity:1"
       d="m 152.86365,7.8376757 c -0.20536,-0.2954596 -1.53102,-0.9858328 -2.10233,-0.7797444 -0.57132,0.2060917 -2.93952,1.348842 -3.08046,1.771501 -0.14094,0.422656 1.74033,1.9477317 2.22558,1.9818537 0.48526,0.03412 2.8742,-0.684051 3.09938,-1.0118237 0.22518,-0.327773 0.069,-1.6579935 -0.14217,-1.9617866 z"
       id="path908-1"
       sodipodi:nodetypes="ssssss" />
    <path
       style="fill:#c8b7b7;fill-rule:evenodd;stroke:#916f6f;stroke-width:0.1;stroke-linecap:butt;stroke-linejoin:miter;stroke-miterlimit:4;stroke-dasharray:none;stroke-opacity:1"
       d="m 161.25975,9.6976471 c -0.31851,0.15432 -1.26761,0.9753059 -1.30499,1.4956799 -0.0374,0.520373 0.7922,1.336082 1.54051,1.485705 0.74832,0.149624 2.23741,-1.018746 2.36864,-1.436146 0.13124,-0.417399 -0.36476,-1.2498209 -0.91915,-1.4187139 -0.55439,-0.1688931 -1.36651,-0.2808456 -1.68501,-0.126525 z"
       id="path914-9-8"
       sodipodi:nodetypes="zssssz" />
  </g>
  <g
     inkscape:groupmode="layer"
     id="layer2"
     inkscape:label="shape"
     style="display:none">
    <path
       style="fill:#00ffff;fill-rule:evenodd;stroke:#000080;stroke-width:0.467398px;stroke-linecap:butt;stroke-linejoin:miter;stroke-opacity:1"
       d="M 0.08658323,18.928909 H 169.58927 c 0,0 -22.40465,-17.5135599 -29.8901,-18.51658998 C 132.21375,-0.59070811 93.488461,-5.194131 87.984841,-7.0666771 82.481217,-8.9392251 51.525633,-17.415465 44.311168,-17.222104 37.096698,-17.028742 0.30934029,-22.109327 0.30934029,-22.109327 Z"
       id="path835"
       sodipodi:nodetypes="ccssscc" />
  </g>
</svg>
